<?xml version="1.0" encoding="utf-8"?>
<!-- Generator: Adobe Illustrator 25.2.0, SVG Export Plug-In . SVG Version: 6.00 Build 0)  -->
<svg version="1.1" id="Layer_1" xmlns="http://www.w3.org/2000/svg" xmlns:xlink="http://www.w3.org/1999/xlink" x="0px" y="0px"
	 viewBox="0 0 174.7 174.7" style="enable-background:new 0 0 174.7 174.7;" xml:space="preserve">
<style type="text/css">
	.st0{fill:#451701;}
	.st1{fill:#FF9F00;}
	.st2{fill-rule:evenodd;clip-rule:evenodd;fill:#FFBE00;}
	.st3{fill-rule:evenodd;clip-rule:evenodd;}
	.st4{fill-rule:evenodd;clip-rule:evenodd;fill:#FF9F00;}
	.st5{fill:#B6EBF3;}
	.st6{opacity:0.3159;fill:#B6EBF3;enable-background:new    ;}
	.st7{fill-rule:evenodd;clip-rule:evenodd;fill:#451701;}
	.st8{fill:#3A3A3A;}
	.st9{fill-rule:evenodd;clip-rule:evenodd;fill:#282828;}
	.st10{fill:#FFBE00;}
	.st11{fill-rule:evenodd;clip-rule:evenodd;fill:#B6EBF3;fill-opacity:0.3159;}
	.st12{opacity:0.6;fill-rule:evenodd;clip-rule:evenodd;fill:#FFFFFF;enable-background:new    ;}
	.st13{fill-rule:evenodd;clip-rule:evenodd;fill:#FFFFFF;}
	.st14{fill-rule:evenodd;clip-rule:evenodd;fill:#F6FEFF;}
	.st15{fill-rule:evenodd;clip-rule:evenodd;fill:#FF4088;}
	.st16{fill-rule:evenodd;clip-rule:evenodd;fill:#C9177E;}
	.st17{fill:#FFFFFF;}
	.st18{fill:#FF4088;}
	.st19{fill:#FDFDFD;}
</style>
<g>
	<g>
		<g xmlns:vectornator="http://vectornator.io">
			<path d="M99.2,156.6c-1.9,1-2.4-0.8-2.4-1.1l0,0c-1.3,1-2.5-0.1-3.5-2.2c-0.1,0-0.1,0-0.2-0.1c0,0-0.3,0-0.9-0.2s-2-1.3-0.1-0.9
				c0.2,0.1-0.8-0.9-0.1-0.8c0.2,0,0.5,0.2,0.6,0.3c-0.6-1.7-1.2-3.6-1.7-5.6c-0.8-3.3-1.5-6.4-2-8c-0.1-0.2-0.2-0.7-0.4-1.3
				c1.6-0.6,3.1-1.3,4.6-2.1c1,1.6,2.2,3.8,3.6,6.1c0.3,0.5,0.7,1.1,1,1.6c0-0.1-0.1-0.3-0.1-0.5c-0.1-0.6,0.2-1.9,0.7-0.1
				c0.1,0.2,0.4-1.1,0.7-0.5c0.2,0.4,0,2.1-0.4,2.6c0.9,1.4,1.7,2.7,2.5,3.7c0.1,0.2,0.3,0.4,0.4,0.6l0,0l0,0
				c0.1-0.4,1.2-4.8,3.9-5.3c0.7-0.1,1.6,0,2.6,0.7C109,143.9,100.7,155.7,99.2,156.6z"/>
			<path class="st0" d="M105.5,142.6c-2.7,0.5-3.7,5-3.9,5.3l0,0v0.1c0,0.1-0.2,0.5-0.5,0.9c0.9,1,4.4-4.7,4.5-5.6
				C105.5,142.9,105.5,142.7,105.5,142.6z"/>
			<path class="st1" d="M101.6,147.8L101.6,147.8L101.6,147.8C101.6,147.8,101.6,147.9,101.6,147.8c-0.2-0.1-0.3-0.3-0.4-0.5
				c-0.8-1.1-1.7-2.4-2.5-3.7c0.4-0.5,0.6-2.2,0.4-2.6c-0.3-0.6-0.6,0.7-0.7,0.5c-0.5-1.8-0.8-0.5-0.7,0.1c0,0.2,0.1,0.4,0.1,0.5
				c-0.3-0.5-0.7-1.1-1-1.6l0,0c-1.2,1.6-3.7,4.3-5.9,5.4c0.5,1.9,1.1,3.9,1.7,5.6c-0.1,0-0.4-0.2-0.6-0.3c-0.7-0.1,0.4,0.9,0.1,0.8
				c-1.8-0.4-0.4,0.7,0.1,0.9c0.6,0.2,0.9,0.2,0.9,0.2c0.1,0,0.1,0,0.2,0.1c1,2.1,2.2,3.2,3.5,2.2l0,0c0.5-1,3.1-4.8,4.2-6.6l0,0
				c0.3-0.5,0.5-0.8,0.5-0.9C101.6,147.9,101.6,147.9,101.6,147.8z"/>
			<path class="st2" d="M101.6,147.8v0.1c0,0.1-0.2,0.5-0.5,0.9c-1.4-0.9-2.9-4.7-3.3-5.7c-0.2-0.7-0.7-1.9-1-2.6
				c0.3,0.5,0.6,1.1,1,1.6c0-0.1-0.1-0.3-0.1-0.5c-0.1-0.6,0.2-1.9,0.7-0.1c0.1,0.2,0.4-1.1,0.7-0.5c0.2,0.4,0,2.1-0.4,2.6
				c0.9,1.4,1.7,2.7,2.5,3.7C101.3,147.5,101.4,147.7,101.6,147.8C101.6,147.9,101.6,147.8,101.6,147.8z"/>
		</g>
		
			<g id="Слой-3" vectornator:layerName="‚Äö√Ñ√∂‚àö√ë‚àö‚àÇ‚Äö√†√∂‚àö√´‚Äö√†√∂¬¨¬Æ¬¨¬®¬¨¬Æ‚Äö√Ñ√∂‚àö‚Ä†‚àö¬™‚Äö√Ñ√∂‚àö√ë‚àö‚àÇ‚Äö√†√∂‚àö√´‚Äö√†√∂¬¨¬Æ¬¨¬®¬¨¬Æ‚Äö√Ñ√∂‚àö√´¬¨¬¢‚Äö√Ñ√∂‚àö√ë‚àö‚àÇ‚Äö√†√∂‚àö√´‚Äö√†√∂¬¨¬Æ‚Äö√Ñ√∂‚àö‚Ä†‚àö‚àÇ¬¨¬®‚Äö√†√á‚Äö√Ñ√∂‚àö√ë‚àö‚àÇ‚Äö√†√∂‚àö√´‚Äö√†√∂¬¨¬Æ‚Äö√¢√†‚àö¬®‚Äö√†√∂‚àö√´ 3" xmlns:vectornator="http://vectornator.io">
			<path class="st0" d="M94.4,133.7c0.2-0.1,0.3-0.2,0.5-0.3c1.9-1.2,3.7-2.7,5.4-4.3c0.7,0.3,1.8,0.5,2.7,0.3
				c1.6-0.4-2.1-0.8-1.4-1s3.2-1.3,0.9-1.2c-0.2,0-0.4,0-0.5,0c0.5-0.6,0.9-1.2,1.3-1.7c0.2-0.3,0.4-0.6,0.5-0.9
				c-0.9,0-2-0.1-3.3-0.2l0,0c-0.5,0-1.1-0.1-1.7-0.2c-0.4,0-0.8-0.1-1.2-0.1c-9.5-1.1-24-3.8-26.4-4.7c-0.7-0.2-1.7-0.5-2.9-0.9
				c-4-1.2-10-2.9-13.9-4.6c-0.8-0.4-1.6-0.7-2.2-1.1c-0.2,0.8-0.3,1.7-0.4,2.6c-0.6,7.2,1.9,16.6,2.8,21.3c0.1,0.4,2.1,8.2,2.7,8.2
				c1,0,1.2-4.3,6.1-4.4c2.6-0.1,5.3-0.2,8.1-0.4l0,0c5.4-0.4,10.9-1.3,16-3.1c0.3-0.1,0.7-0.2,1-0.4c1.6-0.6,3.1-1.3,4.6-2.1
				C93.6,134.2,94,134,94.4,133.7z"/>
			<path class="st3" d="M103.7,124.6c-0.2,0.3-0.4,0.6-0.5,0.9c-4.6,0-10.8-0.8-12.3-0.9c-3.7-0.4-28.5-4.5-37.2-8.5
				c1.6,2.7,3.2,5.5,3.4,5.7c6.1,5.4,12.7,9.4,20.9,10.8c4,0.7,10.1,1.8,16.4,1.2c-9.1,5.6-20.8,6.4-31,6.7
				c-4.8,0.2-5.1,4.4-6.1,4.4c-0.6,0-2.6-7.7-2.7-8.2c-1-5.2-4.1-16.6-2.4-23.9c4,2.5,15.4,5.5,19,6.6c2.7,0.9,20.1,4.2,29.3,5l0,0
				C101.7,124.5,102.8,124.6,103.7,124.6z"/>
			<path class="st2" d="M103,129.4c-0.9,0.2-2,0-2.7-0.3c-1.6,1.7-3.4,3.1-5.4,4.3c-5.3,1.2-12.9-2.5-18.8-7.1
				c-0.8,2-2.5,1.6-0.7-0.1c0.7-0.6-1.5,1.4-1.9,0.6c-0.3-0.7,1-1.1,1.8-1.2c-2-1.6-3.7-3.2-5.2-4.8c-0.7-0.8-1.3-1.5-1.8-2.3
				c1.2,0.4,2.2,0.7,2.9,0.9c2.4,0.8,16.9,3.6,26.4,4.7c0.3,0.1,0.6,0.1,0.9,0.1c0.1,0,0.1,0,0.2,0c0.6,0.1,1.1,0.1,1.7,0.2l0,0
				c1.3,0.1,2.4,0.2,3.3,0.2c-0.2,0.3-0.4,0.6-0.5,0.9c-0.4,0.6-0.8,1.1-1.3,1.7c0.2,0,0.3,0,0.5,0c2.3-0.1-0.2,1-0.9,1.2
				C100.9,128.6,104.6,129.1,103,129.4z"/>
			<path class="st4" d="M103.2,125.5c-3.1,0-6.8-0.3-9.4-0.6c0.2,1.3,0.2,2.5-0.4,3c-1,0.7-1.2-3.1-1.4-2.5
				c-0.2,0.6-0.3,2.4-1.1,1.9c-0.8-0.5-0.7-1.7-0.3-2.7c-2.5-0.3-11.6-1.8-20.5-3.7c-0.7-0.8-1.3-1.5-1.8-2.3
				c1.2,0.4,2.2,0.7,2.9,0.9c2.4,0.8,16.9,3.6,26.4,4.7c0.3,0.1,0.6,0.1,0.9,0.1c0.1,0,0.1,0,0.2,0c0.6,0.1,1.1,0.1,1.7,0.2l0,0
				c1.3,0.1,2.4,0.2,3.3,0.2C103.6,124.9,103.4,125.2,103.2,125.5z"/>
			<path class="st2" d="M87.5,136.9c-5.1,1.8-10.6,2.7-16,3.1l0,0c-4.5-2.3-8.9-6.9-12.4-11.8c-0.4,0.5-0.9,1-1.3,1
				c-1.3-0.1,1.9-2.3,0-1.5c-0.2,0.1-1.3,1-1.5,0.4c-0.2-0.5,0.7-1.2,1.5-1.6c-2.8-4-4.9-8.1-6-11.1c0-0.1,0-0.3,0-0.4s0-0.1,0-0.1
				c0.1-0.7,0.2-1.4,0.3-2.1c0.6,0.4,1.3,0.7,2.2,1.1c1,1,2.2,2.3,3.7,3.8c1.1,1.2,2.4,2.5,3.8,3.9c0-0.1,0-0.2,0.1-0.4V121
				c-0.6-1.3,1.5-3.2,1.1-0.7c-0.1,0.8,0.7-0.8,1.2-1c0.1,0,0.2,0,0.2,0.1c0,0,0,0,0,0.1c0.3,0.8-0.7,2.4-1.6,3.1
				c1.3,1.3,2.7,2.7,4.1,4.1c1.6,1.5,3.2,2.9,4.9,4.2c3.8,2.8,7.9,4.8,12.2,5.5C85.4,136.6,86.5,136.8,87.5,136.9z"/>
			<path class="st4" d="M84.1,136.4c-4.4-0.7-8.5-2.7-12.2-5.5c-0.4-0.1-0.8-0.3-1.2-0.5c-8.2-3.4-9.2-4.7-13.5-8.9
				c-1.8-1.7-3.9-4.7-5.1-6.4c1.3,0.8,3.4,1.7,6,2.5c-1.4-1.5-2.7-2.8-3.7-3.8c-0.8-0.4-1.6-0.7-2.2-1.1c-0.2,0.7-0.3,1.4-0.3,2.1
				c0,0.1,0,0.1,0,0.1l0,0c0,0.1,0,0.3,0,0.4c1.1,3,3.3,7,6,11.1c-0.9,0.4-1.7,1.1-1.5,1.6s1.3-0.3,1.5-0.4c1.9-0.8-1.3,1.4,0,1.5
				c0.3,0,0.8-0.4,1.3-1c3.5,4.8,7.9,9.4,12.4,11.8l0,0c5.4-0.4,10.9-1.3,16-3.1C86.5,136.8,85.4,136.6,84.1,136.4z"/>
		</g>
		<g>
			<path class="st5" d="M37.3,94.9c-5.3-2.7-8.9-7.4-11-14.6c-0.1-0.2-0.1-0.3-0.2-0.5c-0.9-3-3.6-11.9-0.8-13.5
				c0.2,0,1.5,0.2,7.1,3.9c3.7,2.5,8.2,5.8,12.6,9s8.4,6.1,10.9,7.8c0.3-0.2,0.6-0.5,0.9-0.7c-2.5-1.6-6.7-4.7-11.1-7.9
				c-4.5-3.3-9.1-6.7-12.9-9.2c-5.6-3.7-7.1-4.2-7.9-3.8c-3.1,1.8-1.4,8.9,0.3,14.8c0.1,0.2,0.1,0.4,0.2,0.5
				c2.2,7.4,6,12.4,11.6,15.2c3.8,1.9,8.6,2.9,15.1,3.1c0.2-0.4,0.4-0.7,0.6-1.1C45.9,97.8,41.1,96.8,37.3,94.9z"/>
			<path class="st6" d="M53.7,95.7c-4.9-0.5-9.7-1.7-14.2-3.6c-0.2-0.1-3.6-1.9-3.3-2.1c0.3-0.3,2.3,0.3,2.6,0.3
				c1.9,0.4,9.6,1.8,15.9,3.1c-0.3-0.4-0.5-0.7-0.7-1.1c-6.8-2.7-13.3-6.6-18.4-12c-0.2-0.2-2.6-3.1-2.3-3.3h0.1
				c0.5,0,2,1.2,2.2,1.3c2.1,1.4,12.1,8,17.5,11.8c0-0.1,0-0.1,0-0.2s0-0.1,0-0.2c0.1-0.4,1.1-1.4,2.8-2.8
				c-2.5-1.6-6.5-4.5-10.9-7.8c-4.3-3.2-8.8-6.5-12.6-9c-5.6-3.8-6.8-4-7.1-3.9c-2.7,1.6,0,10.6,0.8,13.5c0.1,0.2,0.1,0.4,0.2,0.5
				c2.1,7.1,5.7,11.9,11,14.6c3.8,1.9,8.6,2.9,15.2,3l0,0C52.9,97.1,53.3,96.4,53.7,95.7z"/>
			<path class="st6" d="M47.1,55.7C44,49.8,43,49,42.7,48.9c-3.1,0.2-5,9.4-5.6,12.4c0,0.2-0.1,0.4-0.1,0.5c-1.5,7.3-0.5,13.2,3,18
				c2.6,3.6,6.6,6.8,12.9,10.2c0-0.1,0-0.1,0-0.2c0.1-0.3,0.8-1,2-2.1c-4.7-3.3-8.9-7.2-12.3-11.8c-0.1-0.2-2.1-3.4-1.8-3.6
				c0.4-0.1,1.9,1.4,2,1.6c1.6,1.5,8.8,7.7,13.7,12.4l0.1-0.1c0.2-0.2,0.5-0.4,0.7-0.6c-5.1-5.2-9.3-11.4-11.8-18.3
				c-0.1-0.2-1.1-3.9-0.7-3.9c0.4,0,1.4,1.9,1.5,2.1c1.4,2.3,9.1,14.1,12,19.4c0.8-0.7,1.7-1.3,2.6-2.1c-1.4-2.3-4-7.4-6.8-13.3
				C51.7,64.6,49.3,59.6,47.1,55.7z"/>
			<path class="st5" d="M61.7,82.1c-1.4-2.3-4-7.6-6.7-13.1c-2.4-5-4.9-10.1-7.1-14.2c-1.2-2.2-2.1-3.8-2.9-4.9
				c-1-1.5-1.7-2.1-2.3-2.1c-3.6,0.1-5.4,7.2-6.6,13.3c0,0.2-0.1,0.4-0.1,0.5c-1.5,7.6-0.5,13.8,3.1,18.9c2.8,4,7.2,7.4,14.3,11.1
				c-0.2-0.3-0.3-0.7-0.4-0.9c0-0.1,0-0.1-0.1-0.2c0,0,0,0,0-0.1s0-0.1,0-0.2s0-0.1,0-0.2c-6.3-3.4-10.3-6.6-12.9-10.2
				c-3.5-4.8-4.4-10.8-3-18c0-0.2,0.1-0.3,0.1-0.5c0.6-3,2.4-12.2,5.6-12.4c0.2,0.1,1.2,0.8,4.4,6.8c2.1,4,4.5,9,6.9,13.8
				c2.9,5.9,5.4,11.1,6.8,13.3c0.1-0.1,0.2-0.2,0.4-0.3S61.6,82.3,61.7,82.1z"/>
		</g>
		
			<g id="Слой-6" vectornator:layerName="‚Äö√Ñ√∂‚àö√ë‚àö‚àÇ‚Äö√†√∂‚àö√´‚Äö√†√∂¬¨¬Æ¬¨¬®¬¨¬Æ‚Äö√Ñ√∂‚àö‚Ä†‚àö¬™‚Äö√Ñ√∂‚àö√ë‚àö‚àÇ‚Äö√†√∂‚àö√´‚Äö√†√∂¬¨¬Æ¬¨¬®¬¨¬Æ‚Äö√Ñ√∂‚àö√´¬¨¬¢‚Äö√Ñ√∂‚àö√ë‚àö‚àÇ‚Äö√†√∂‚àö√´‚Äö√†√∂¬¨¬Æ‚Äö√Ñ√∂‚àö‚Ä†‚àö‚àÇ¬¨¬®‚Äö√†√á‚Äö√Ñ√∂‚àö√ë‚àö‚àÇ‚Äö√†√∂‚àö√´‚Äö√†√∂¬¨¬Æ‚Äö√¢√†‚àö¬®‚Äö√†√∂‚àö√´ 6" xmlns:vectornator="http://vectornator.io">
			<path class="st0" d="M57.8,97.3C57.7,97.2,57.7,97.2,57.8,97.3c-0.3-0.3-0.6-0.6-0.9-0.9l0,0c-0.1-0.1-0.2-0.2-0.3-0.3
				c-0.5-0.6-1.1-1.4-1.7-2.1c-0.3,0.4-0.6,0.9-0.9,1.4c-0.1,0.2-0.2,0.3-0.3,0.5c-0.4,0.7-0.8,1.4-1.3,2.2l0,0
				c-0.2,0.4-0.4,0.7-0.6,1.1c-2.4,4.5-5,10-5.5,11.3c-1.9,0.3-5.3,0.1-7.2,4.1c-0.9,1.8-1.1,11.3,1.2,11.4c2.6,0.2,6.2-8.5,6.6-9.9
				c0.1-0.4,0.5,4.7,1.6,4c2.9-1.7,2.2-6,0.7-7.9c0-0.4,0.8-1.7,2-3.5c1.1-3.2,4.1-7.7,5.6-10C57.4,97.8,57.8,97.3,57.8,97.3
				L57.8,97.3z"/>
			<path d="M57.8,97.3c-0.7-0.7-1.9-2.1-2.9-3.4c-0.3,0.4-0.6,0.9-0.9,1.4c0.6,1.2,1.8,2.5,2.8,3.4C57.4,97.8,57.8,97.3,57.8,97.3
				L57.8,97.3z"/>
			<path d="M133.5,84.6c-2.4-0.9-8.3,6.3-9.1,7.6c-0.2,0.3,0.8-4.6-0.4-4.3c-3.3,0.8-3.8,5.1-2.9,7.3c-0.2,0.7-3.5,2.9-7,5.9
				c0,0-0.1,0-0.1,0.1c-0.8,0.6-1.6-0.1-2.3-1.1c-0.7,0.7-1.4,1.3-2.2,1.8c-0.5,0.3-1,0.6-1.4,0.8c1.5,2.3,3.4,5.2,5.1,4.9
				c2.8-0.5,9.2-8.7,9.9-9.7c1.9,0.2,5.1,1.4,8.1-1.8c0.8-0.9,2.2-4.4,2.7-7.3C134.4,86.6,134.4,84.9,133.5,84.6z"/>
			<path class="st7" d="M134,88.6c-1.8,7.2-6.8,8.6-10.7,7.9c-1.7,0.9-3.9,3-7.1,4.3c-0.5,0.2-1.3,0.4-2.2,0.3c0,0,0.1,0,0.1-0.1
				c3.5-3,6.8-5.3,7-5.9c-0.9-2.2-0.3-6.5,2.9-7.3c1.2-0.3,0.2,4.6,0.4,4.3c0.8-1.3,6.7-8.5,9.1-7.6C134.4,84.9,134.4,86.6,134,88.6
				z"/>
		</g>
		<g xmlns:vectornator="http://vectornator.io">
			<path class="st7" d="M84.4,157.6c-0.1,0.9-13.1,1.6-14.8,1.2c-2.1-0.5-1.2-2.2-1-2.4l0,0c-0.8-0.1-1.2-0.5-1.4-1.1v-0.1
				c-0.1-0.3-0.1-0.7,0-1.1c0-0.1,0-0.1,0-0.1c0.1-0.7,0.3-1.4,0.6-2.2c-0.7,0.2-1.7,0-1.9-0.5c-0.1-0.3,0-0.7,0.4-0.6
				c2.4,0.5,0-0.5,0.1-1.1c0.1-1,1.4,0.4,1.9,1c0.1-0.1,0.1-0.3,0.2-0.4c0.1-0.1,0.1-0.3,0.2-0.4c0.1-0.1,0.1-0.3,0.2-0.4
				c0.1-0.3,0.3-0.6,0.4-0.9c0.1-0.2,0.1-0.3,0.2-0.5s0.2-0.3,0.2-0.5c0.1-0.2,0.2-0.3,0.2-0.5c0.1-0.1,0.1-0.2,0.2-0.4
				s0.2-0.4,0.4-0.7c0.1-0.1,0.1-0.2,0.2-0.3c0-0.1,0.1-0.1,0.1-0.2c0.1-0.2,0.3-0.5,0.4-0.7c0.5-0.9,1-1.8,1.5-2.6
				c0.1-0.1,0.1-0.3,0.2-0.4c0.6-1,1.1-1.9,1.5-2.6c0-0.1,0.1-0.1,0.1-0.2c0-0.1,0.1-0.1,0.1-0.2c0-0.1,0.1-0.1,0.1-0.2
				c0.1-0.1,0.1-0.2,0.2-0.3c0.3-0.7,2.2-4.4,4-5.2c0.4-0.2,0.7-0.2,1-0.1c0.8,0.3,1.1,1.1,0.9,3.1c-0.1,0.9-0.6,4.1-1.3,7.7
				c-0.1,0.3-0.1,0.5-0.2,0.8c0.1-0.1,0.2-0.2,0.3-0.2c0.7-0.7,1.5-0.8,1,0.1c-0.2,0.3-1.1,1.1-0.7,1s2.2-0.7,1.5,0.2
				c-0.4,0.5-1.7,1.2-2.5,1.2c-0.6,3-1.3,6-1.9,8.2c0,0.1,0,0.1,0,0.1l0,0l0,0c0,0,0.6-0.1,1.5-0.2c0.5-0.1,1.1-0.1,1.7-0.1
				C82.2,154.6,84.6,155.1,84.4,157.6z"/>
			<path class="st3" d="M84.4,157.6c-0.1,0.9-13.1,1.6-14.8,1.2c-2.1-0.5-1.2-2.2-1-2.4c-0.1,0-0.1,0-0.2,0h-0.1h-0.1
				c-0.1,0-0.1,0-0.1,0c-0.1,0-0.1,0-0.2-0.1s-0.2-0.1-0.2-0.2l-0.1-0.1l-0.1-0.1c0,0,0,0,0-0.1c0,0,0,0,0-0.1
				c-0.1-0.2-0.2-0.5-0.2-0.8v-0.1c0-0.2,0-0.4,0-0.6c0-0.3,0.1-0.7,0.2-1c0-0.1,0.1-0.2,0.1-0.4l0,0c0-0.2,0.1-0.3,0.1-0.5
				c0,0,0,0,0-0.1c0.1-0.2,0.1-0.4,0.2-0.6c0.1-0.4,0.3-0.8,0.5-1.3c0.5-1.1,1.1-2.4,1.7-3.6c0.1-0.1,0.1-0.2,0.2-0.4
				s0.2-0.4,0.4-0.7c0.1-0.1,0.1-0.2,0.2-0.3c0.7-1.2,1.3-2.4,2-3.5c0.1-0.1,0.2-0.3,0.2-0.4c0.6-1,1.1-1.9,1.5-2.6
				c0-0.1,0.1-0.1,0.1-0.2c0-0.1,0.1-0.1,0.1-0.2c0-0.1,0.1-0.1,0.1-0.2c0.1-0.1,0.1-0.2,0.2-0.3c0.3-0.7,2.2-4.4,4-5.2
				c-0.4,0.3-0.8,0.8-1.2,1.3c-0.8,1.1-6.8,14.4-5.8,18.1c0.6,2.3,2.8,2.7,5.2,2.5c0,0.1,0,0.1,0,0.1l0,0c0,0,0.6-0.1,1.5-0.2
				c0.6-0.1,1.1-0.1,1.7-0.1C82.2,154.6,84.6,155.1,84.4,157.6z"/>
			<path class="st2" d="M81.4,145.5c-0.4,0.5-1.7,1.2-2.5,1.2c-0.5,2.5-1.1,5.1-1.7,7.2c-0.1,0.3-0.2,0.7-0.3,1c0,0.1,0,0.1,0,0.1
				l0,0c-1.9,0.1-5.9,1-8.2,1.4c-0.8-0.1-1.2-0.5-1.4-1.1v-0.1c-0.1-0.3-0.1-0.7,0-1.1c0-0.1,0-0.1,0-0.1c0.1-0.7,0.3-1.4,0.6-2.2
				c-0.7,0.2-1.7,0-1.9-0.5c-0.1-0.3,0-0.7,0.4-0.6c2.4,0.5,0-0.5,0.1-1.1c0.1-1,1.4,0.4,1.9,1c0.1-0.1,0.1-0.3,0.2-0.4
				c0.1-0.1,0.1-0.3,0.2-0.4c0.1-0.1,0.1-0.3,0.2-0.4c0.1-0.3,0.3-0.6,0.4-0.9c0.1-0.2,0.1-0.3,0.2-0.5s0.2-0.3,0.2-0.5
				c0.1-0.2,0.2-0.3,0.2-0.5c0.1-0.1,0.1-0.2,0.2-0.4s0.2-0.4,0.4-0.7c0.1-0.1,0.1-0.2,0.2-0.3c0-0.1,0.1-0.1,0.1-0.2
				c0.1-0.2,0.2-0.4,0.4-0.7v-0.1c0.2,0.1,0.7,0.1,1.3,0.1c0.2,0,0.4,0,0.6,0c1.8-0.1,4.4-0.6,6.4-1c-0.1,0.3-0.1,0.5-0.2,0.8
				c0.1-0.1,0.2-0.2,0.3-0.2c0.7-0.7,1.5-0.8,1,0.1c-0.2,0.3-1.1,1.1-0.7,1C80.2,145.2,82.1,144.7,81.4,145.5z"/>
			<path class="st4" d="M77.2,153.9c-0.1,0.3-0.2,0.7-0.3,1c0,0.1,0,0.1,0,0.1l0,0c-1.9,0.1-5.9,1-8.2,1.4c-0.8-0.1-1.2-0.5-1.4-1.1
				v-0.1c-0.1-0.3-0.1-0.7,0-1.1c0-0.1,0-0.1,0-0.1c0.1-0.7,0.3-1.4,0.6-2.2c-0.7,0.2-1.7,0-1.9-0.5c-0.1-0.3,0-0.7,0.4-0.6
				c2.4,0.5,0-0.5,0.1-1.1c0.1-1,1.4,0.4,1.9,1c0.1-0.1,0.1-0.3,0.2-0.4c0.1-0.1,0.1-0.3,0.2-0.4c0.1-0.1,0.1-0.3,0.2-0.4
				c0.1-0.3,0.3-0.6,0.4-0.9c0.1-0.2,0.1-0.3,0.2-0.5s0.2-0.3,0.2-0.5c0.1-0.2,0.2-0.3,0.2-0.5c0.1-0.1,0.1-0.2,0.2-0.4
				s0.2-0.4,0.4-0.7c0.1-0.1,0.1-0.2,0.2-0.3c0-0.1,0.1-0.1,0.1-0.2c0.1-0.2,0.2-0.4,0.4-0.7c0.5,0,0.9,0.1,1.4,0c0.2,0,0.4,0,0.6,0
				c-0.1,0.5-0.5,1.5-0.6,1.7c-0.5,1.5-1.1,4.2-0.2,5.5C73.2,153,75.4,153.6,77.2,153.9z"/>
		</g>
		
			<g id="Слой-2" vectornator:layerName="‚Äö√Ñ√∂‚àö√ë‚àö‚àÇ‚Äö√†√∂‚àö√´‚Äö√†√∂¬¨¬Æ¬¨¬®¬¨¬Æ‚Äö√Ñ√∂‚àö‚Ä†‚àö¬™‚Äö√Ñ√∂‚àö√ë‚àö‚àÇ‚Äö√†√∂‚àö√´‚Äö√†√∂¬¨¬Æ¬¨¬®¬¨¬Æ‚Äö√Ñ√∂‚àö√´¬¨¬¢‚Äö√Ñ√∂‚àö√ë‚àö‚àÇ‚Äö√†√∂‚àö√´‚Äö√†√∂¬¨¬Æ‚Äö√Ñ√∂‚àö‚Ä†‚àö‚àÇ¬¨¬®‚Äö√†√á‚Äö√Ñ√∂‚àö√ë‚àö‚àÇ‚Äö√†√∂‚àö√´‚Äö√†√∂¬¨¬Æ‚Äö√¢√†‚àö¬®‚Äö√†√∂‚àö√´ 2" xmlns:vectornator="http://vectornator.io">
			<g xmlns:vectornator="http://vectornator.io">
				<path class="st8" d="M113.7,97.1c-0.1,0.7-0.9,1.8-1.9,2.8c-0.7,0.7-1.4,1.3-2.2,1.8c-0.5,0.3-1,0.6-1.4,0.8
					c-0.3,0.1-0.5,0.2-0.8,0.2c0.2,3.7,0.8,16.7-0.8,20.6c-0.2,0.4-0.4,0.8-0.6,0.9c-0.3,0.2-1.1,0.3-2.3,0.3c-0.9,0-2-0.1-3.3-0.2
					l0,0c-9.2-0.7-26.6-4-29.3-5c-3.5-1.2-15-4.2-19-6.6c-0.7-0.4-1.2-0.9-1.3-1.3c-0.1-0.1-0.1-0.3-0.1-0.5
					c-0.1-0.6,0.1-1.5,0.4-2.4c1.1-3.2,4.1-7.7,5.6-10c0.6-0.8,1-1.4,1-1.4l0,0L57.6,97c-0.3-0.3-0.7-0.7-1.1-1.2
					c-0.5-0.6-1.1-1.4-1.7-2.1c-0.1-0.1-0.2-0.3-0.3-0.4c-0.3-0.4-0.5-0.7-0.7-1.1c-0.2-0.2-0.3-0.5-0.4-0.7
					c-0.2-0.3-0.3-0.6-0.4-0.9c-0.1-0.2-0.1-0.3-0.1-0.5c0-0.1,0-0.1,0-0.2s0-0.1,0-0.2c0.1-0.3,0.8-1,2-2.1
					c0.3-0.2,0.6-0.5,0.9-0.8c0.1-0.1,0.2-0.2,0.4-0.3c0.1-0.1,0.3-0.2,0.4-0.3l0.1-0.1c0.2-0.2,0.5-0.4,0.7-0.6
					c0.3-0.2,0.6-0.5,0.9-0.8c0.8-0.7,1.7-1.3,2.6-2.1c0.1-0.1,0.2-0.2,0.4-0.3c0.2-0.1,0.3-0.3,0.5-0.4c3.3-2.6,7.1-5.4,10.1-7.6
					c2.2-1.6,4.1-2.9,5.1-3.5c4.2,5.3,18.3,11.2,25.7,9.2c0.2,0.3,0.7,0.9,1.4,1.8C107.2,86.2,113.8,95.7,113.7,97.1z"/>
				<g xmlns:vectornator="http://vectornator.io">
					<path class="st9" d="M100.4,124.4c-9.2-0.7-26.6-4-29.3-5c-4.1-1.4-19.3-5.3-20.3-7.9c-1.2-3.3,6.9-14.1,6.9-14.3
						c0.7,0.7,2.2,2.3,3,2.2c1.1-0.1,6-8.2,6.7-8.6s-3.5,7.4-3.9,8.4c-2.3,5.4-1.1,9.5,3.2,13.2c6.1,5.3,13.2,7,20.8,9.2
						C89.3,122.2,96.5,123.6,100.4,124.4z"/>
					<path class="st9" d="M109.6,101.7c-0.8,0.5-1.6,0.9-2.2,1c-1.2-3.8-3-11.9-2.4-10.9C105.4,92.5,108.3,99.2,109.6,101.7z"/>
					<path class="st9" d="M104.1,82c-1,0.9-2.6,1.7-4.8,1.8c-2.3,0.1-7.4,0.7-14-1.9c-5.2-2-11.1-5-13.4-7.4
						c2.2-1.6,4.1-2.9,5.1-3.5c4.2,5.3,18.3,11.2,25.7,9.2C103,80.5,103.4,81.1,104.1,82z"/>
				</g>
			</g>
		</g>
		
			<g id="Слой-7" vectornator:layerName="‚Äö√Ñ√∂‚àö√ë‚àö‚àÇ‚Äö√†√∂‚àö√´‚Äö√†√∂¬¨¬Æ¬¨¬®¬¨¬Æ‚Äö√Ñ√∂‚àö‚Ä†‚àö¬™‚Äö√Ñ√∂‚àö√ë‚àö‚àÇ‚Äö√†√∂‚àö√´‚Äö√†√∂¬¨¬Æ¬¨¬®¬¨¬Æ‚Äö√Ñ√∂‚àö√´¬¨¬¢‚Äö√Ñ√∂‚àö√ë‚àö‚àÇ‚Äö√†√∂‚àö√´‚Äö√†√∂¬¨¬Æ‚Äö√Ñ√∂‚àö‚Ä†‚àö‚àÇ¬¨¬®‚Äö√†√á‚Äö√Ñ√∂‚àö√ë‚àö‚àÇ‚Äö√†√∂‚àö√´‚Äö√†√∂¬¨¬Æ‚Äö√¢√†‚àö¬®‚Äö√†√∂‚àö√´ 7" xmlns:vectornator="http://vectornator.io">
			<g xmlns:vectornator="http://vectornator.io">
				<path class="st0" d="M90.6,36.6c2.8-6.1,8.1-13.4,11.6-15.9c8.8-6.3-1.9,1.2,3.4,2.8c3,0.9,7.1-6,4-8
					c-6.8-4.3-21.2,17.8-22.8,26.1c0.6,0,1.1,0.1,1.7,0.2C89,40.4,89.7,38.6,90.6,36.6z"/>
				<path class="st0" d="M121,22.2c-5.9-5.4-24,13.8-26.9,21.7c0.5,0.3,0.9,0.6,1.4,0.9c0.8-1.3,1.8-3.2,3.2-5.2
					c3.9-5.5,10.4-11.8,14.2-13.6c9.8-4.7-2.1,0.8,2.8,3.3C118.5,30.7,123.8,24.7,121,22.2z"/>
				<path class="st10" d="M88.5,41.8c-0.6-0.1-1.1-0.2-1.7-0.2c-4.2-0.2-8.7,1.5-13.1,5.9l-0.1,0.1c-6.5,6.7-6.6,15.9-2.2,22
					c3.7,5.1,9.5,7.9,15.1,10.6c3.7,1.8,11.1,3,15.1,1.5c0.4-0.2,0.9-0.4,1.4-0.8c2.2-1.5,4.8-5,4.6-10.9c-0.2-5.8-1-10.5-4-15.7
					c-2.3-3.9-5.1-7.2-8.2-9.5C95,44.6,94.5,44.2,94,44C92.3,42.9,90.5,42.2,88.5,41.8z"/>
				<path class="st4" d="M103.1,80.9c-0.5,0.4-1,0.6-1.4,0.8c-4,1.5-11.4,0.3-15.1-1.5c-5.6-2.7-11.4-5.5-15.1-10.6
					c-4.4-6-4.4-15.3,2.2-22c0.2,0.1,0.2,0.3-0.2,0.4c-1,0.4-1,4-1,4.8c-0.6,11,8.4,19.6,15.1,24C90.5,78.8,96.8,81.8,103.1,80.9z"
					/>
			</g>
			<path xmlns:vectornator="http://vectornator.io" class="st7" d="M92.1,68.8c0.8,0.6,2.4,1.7,3.7,1.8c3,0.4,3.7-3.3,3.8-1.9
				c0.4,3.3-2.4,4.9-4.7,3.5C91.7,70.5,89.1,66.8,92.1,68.8z"/>
			<path xmlns:vectornator="http://vectornator.io" class="st7" d="M77.7,42c-0.8-0.3,0.3-2.8,2.5-5c3.6-3.3,9.5-3.9,8.6,0.1
				c-0.2,0.9-3.5,1-6.6,2.9C81.7,40.3,78.3,42.2,77.7,42z"/>
			<path xmlns:vectornator="http://vectornator.io" class="st7" d="M104,42.9c-0.8-0.3,0.3-2.8,2.5-5c3.6-3.3,9.5-3.9,8.6,0.1
				c-0.2,0.9-3.5,1-6.6,2.9C108,41.2,104.6,43.1,104,42.9z"/>
			<g xmlns:vectornator="http://vectornator.io">
				<g xmlns:vectornator="http://vectornator.io">
					<path class="st11" d="M92.6,65.9c-0.5,0.4-3.9,1-10.4,1.3c-0.4,0-0.9,0.1-1.4,0.1c-0.9,0-1.9,0.1-3,0.1
						c-2.5,0.1-4.8,0.1-6.7,0.1c-3-0.1-5.2-0.2-6.6-0.4c-0.8-0.1-1.4-0.3-1.5-0.4c-0.6-0.5-1.3-5.5-1.5-13.6c0-0.6,0-1.1,0-1.6
						c0-0.7,0-1.3,0-1.9c0-6.3,0.4-9.8,0.8-10.3c0.2-0.3,2-0.8,7.1-1.3c0.1,0,0.2,0,0.2,0c0.5,0,0.9-0.1,1.4-0.1
						c3.6-0.3,7.7-0.4,11.3-0.3c1.7,0,3.1,0.1,4.3,0.1c4.7,0.3,5.4,0.9,5.4,1c0.1,0.1,0.2,0.3,0.2,0.6l0,0c0.4,1.4,0.8,5.2,1,10.3
						c0,0.6,0,1.2,0.1,1.8c0,0.2,0,0.4,0,0.6C93.6,60,93.1,65,92.6,65.9z"/>
					<path class="st12" d="M71,37.9l-9.6,13.6c0-0.7,0-1.3,0-1.9L69.6,38C70.1,37.9,70.6,37.9,71,37.9z"/>
					<path class="st12" d="M93.4,51.4L82.2,67.3c-0.4,0-0.9,0.1-1.4,0.1l12.5-17.8C93.4,50.2,93.4,50.8,93.4,51.4z"/>
					<path class="st12" d="M92.3,39.3L92.3,39.3L71.1,67.5c-3-0.1-5.2-0.2-6.6-0.4l22.1-29.4c4.7,0.3,5.4,0.9,5.4,1
						C92.2,38.7,92.3,38.9,92.3,39.3z"/>
				</g>
				<g>
					<path class="st11" d="M129.8,65.4c-0.5,0.4-3.9,1-10.3,1.3c-0.4,0-0.9,0.1-1.4,0.1c-1,0-2,0.1-3.1,0.1
						c-2.5,0.1-4.7,0.1-6.6,0.1c-3-0.1-5.2-0.2-6.6-0.4c-0.9-0.1-1.4-0.3-1.6-0.4c-0.6-0.5-1.3-5.5-1.5-13.6c0-0.5,0-1,0-1.5
						c0-0.7,0-1.3,0-1.9c0-6.4,0.4-9.9,0.8-10.4c0.2-0.3,2-0.8,7.1-1.3c0.1,0,0.2,0,0.3,0c0.5,0,0.9-0.1,1.4-0.1
						c3.6-0.2,7.7-0.4,11.2-0.3c1.8,0,3.2,0.1,4.3,0.2c4.6,0.3,5.3,0.9,5.4,1s0.2,0.3,0.3,0.7c0.4,1.5,0.8,5.2,1,10.4
						c0,0.6,0,1.2,0.1,1.8c0,0.2,0,0.3,0,0.5C130.8,59.5,130.3,64.5,129.8,65.4z"/>
					<path class="st12" d="M108.3,37.3L98.7,51c0-0.7,0-1.3,0-1.9l8.3-11.7C107.4,37.4,107.9,37.4,108.3,37.3z"/>
					<path class="st12" d="M130.6,51l-11.1,15.7c-0.4,0-0.9,0.1-1.4,0.1l12.5-17.6C130.6,49.8,130.6,50.4,130.6,51z"/>
					<path class="st12" d="M129.6,38.8L108.4,67c-3-0.1-5.2-0.2-6.6-0.4l22.1-29.4c4.6,0.3,5.3,0.9,5.4,1
						C129.4,38.2,129.5,38.5,129.6,38.8z"/>
				</g>
				<path class="st5" d="M131.7,51.5c0-2.1-0.3-12.7-1.6-14.1c-1.6-1.8-13-1.6-16.4-1.4c-3.6,0.1-7.1,0.4-9.8,0.7
					c-4.7,0.6-5.1,1.2-5.4,1.4l0,0c-1.2,1.6-1,13.2-1,14.5c0.1,2.1,0.1,4.1,0.2,5.9c-0.8-0.3-2.1-0.4-3.3,0.2c0.1-2.9,0-5.7,0-6.6
					c0-2.1-0.3-12.7-1.6-14.1c-1.6-1.8-13-1.6-16.4-1.4c-3.6,0.1-7.1,0.4-9.8,0.7c-4.7,0.6-5.1,1.2-5.3,1.4c-1.2,1.6-1,13.2-1,14.5
					c0.1,3.5,0.3,6.8,0.5,9.2c0.4,4,0.9,4.9,1.3,5.2c1,0.9,6.4,1.1,11,1.1c0.2,0,0.5,0,0.7,0c6,0,12.2-0.4,15.9-0.9
					c2.8-0.4,3.4-0.8,3.7-1.2c0.6-0.9,0.8-3.7,1-6.7c0.1,0,0.1,0,0.2-0.1c1.3-0.9,2.7-0.4,3.3-0.2c0.1,0.8,0.1,1.5,0.2,2.1
					c0.4,4,0.9,4.9,1.3,5.2c1,0.9,6.4,1.1,11,1.1c0.2,0,0.5,0,0.7,0c6,0,12.2-0.4,15.9-0.9c2.8-0.4,3.4-0.8,3.7-1.2
					C131.9,64.2,131.8,53.6,131.7,51.5z M92.6,65.9c-0.6,0.5-5.5,1.3-14.7,1.5c-8.8,0.2-14.2-0.2-14.9-0.8
					c-0.6-0.5-1.3-5.5-1.5-13.6c-0.2-8.5,0.3-13.2,0.7-13.8c0.2-0.3,2-0.8,7.1-1.3c4-0.4,8.8-0.5,13-0.5c8.6,0.1,9.6,1,9.7,1.1
					c0.5,0.6,1.2,5.8,1.3,13.4C93.6,60,93.1,65,92.6,65.9z M129.8,65.4c-0.6,0.5-5.5,1.3-14.7,1.5c-8.8,0.2-14.2-0.2-14.9-0.8
					c-0.6-0.5-1.3-5.5-1.5-13.6C98.5,44,99,39.3,99.4,38.7c0.2-0.3,2-0.8,7.1-1.3c4-0.4,8.8-0.5,13-0.5c8.6,0.1,9.6,1,9.7,1.1
					c0.5,0.6,1.2,5.8,1.3,13.4C130.8,59.5,130.3,64.5,129.8,65.4z"/>
			</g>
			<g xmlns:vectornator="http://vectornator.io">
				<path xmlns:vectornator="http://vectornator.io" class="st3" d="M77,52.1c1.5-6.5,5.7-11,9.4-10.2c3.7,0.8,5.5,6.8,4.1,13.2
					c-1.5,6.5-5.7,11-9.4,10.2C77.4,64.5,75.5,58.5,77,52.1z"/>
				<path xmlns:vectornator="http://vectornator.io" class="st13" d="M78.1,52.8c1.2-5.3,5-10.1,8.1-9.4c3.1,0.7,4.2,6.6,3,12
					c-1.2,5.3-4.7,9.3-7.8,8.6C78.3,63.2,76.9,58.1,78.1,52.8z"/>
				<path xmlns:vectornator="http://vectornator.io" class="st3" d="M78,56.6c0.6-4.3,3.1-7.5,5.7-7.2s4.2,4,3.6,8.3
					s-3.1,7.5-5.7,7.2C79.1,64.6,77.5,60.9,78,56.6z"/>
				<path xmlns:vectornator="http://vectornator.io" class="st14" d="M82.7,51.9c0.3-1.6,1.4-2.8,2.6-2.7c1.1,0.1,1.8,1.4,1.6,3
					s-1.4,2.8-2.6,2.7C83.1,54.9,82.4,53.5,82.7,51.9z"/>
			</g>
			<g xmlns:vectornator="http://vectornator.io">
				<path xmlns:vectornator="http://vectornator.io" class="st3" d="M102.3,52.7c1.5-6.5,5.7-11,9.4-10.2c3.7,0.8,5.5,6.8,4.1,13.2
					c-1.5,6.5-5.7,11-9.4,10.2C102.6,65.1,100.8,59.2,102.3,52.7z"/>
				<path xmlns:vectornator="http://vectornator.io" class="st13" d="M103.4,53.4c1.2-5.3,5-10.1,8.1-9.4c3.1,0.7,4.2,6.6,3,12
					c-1.2,5.3-4.7,9.3-7.8,8.6C103.6,63.8,102.2,58.7,103.4,53.4z"/>
				<path xmlns:vectornator="http://vectornator.io" class="st3" d="M103.3,57.2c0.6-4.3,3.1-7.5,5.7-7.2s4.2,4,3.6,8.3
					s-3.1,7.5-5.7,7.2C104.4,65.2,102.8,61.5,103.3,57.2z"/>
				<path xmlns:vectornator="http://vectornator.io" class="st14" d="M108,52.6c0.3-1.6,1.4-2.8,2.6-2.7c1.1,0.1,1.8,1.4,1.6,3
					c-0.3,1.6-1.4,2.8-2.6,2.7S107.7,54.2,108,52.6z"/>
			</g>
		</g>
		<g>
			<path class="st15" d="M99.9,97.5l-0.8,5.7l0,0l-0.1,0.7c-0.1,0.8-0.6,1.4-1.4,1.7c-0.7,0.3-1.5,0.6-2.4,0.9
				c-1.2,0.5-2.5,1-3.4,1.3c-0.7,0.3-1.5,0.2-2.1-0.3l-4.5-3.5c-0.7-0.6-1.1-1.5-1-2.4l0.8-5.8c0.1-0.9,0.7-1.7,1.6-2.1
				c1.4-0.6,3.5-1.5,4.9-2.2l0.2-0.1c0.8-0.4,1.8-0.2,2.5,0.3c1.4,1.1,3.6,2.8,4.8,3.8C99.7,96,100,96.8,99.9,97.5z M89.1,94.3
				l-1.3,9.6l2,0.3l0.6-4.2l3.3,0.5l-0.6,4.2l2,0.3l1.3-9.6l-2-0.3l-0.5,3.5l-3.3-0.5l0.5-3.5L89.1,94.3z"/>
			<path class="st16" d="M93.2,90.7c0.5,0.1,1.1,0.3,1.5,0.6l0,0l4.8,3.8c0,0,0.1,0,0.1,0.1c0.1,0.1,0.2,0.1,0.2,0.2
				c0.3,0.3,0.5,0.7,0.6,1.1c0.1,0.3,0.1,0.6,0.1,0.9c-0.1,0.4-0.9,6.8-1,7.1c-0.1,0.4-0.3,0.7-0.6,1c-0.2,0.2-0.4,0.4-0.7,0.5
				c-0.1,0.1-0.2,0.1-0.2,0.1h-0.1l-5.8,2.3c-0.7,0.3-1.4,0.2-2.1,0c-0.2-0.1-0.3-0.2-0.5-0.3c-0.1,0-0.1-0.1-0.1-0.1l-4.5-3.5
				l-0.1-0.1l0,0c-0.4-0.4-0.8-0.9-1-1.4l0,0c-0.1-0.2-0.1-0.4-0.1-0.7l0,0c0,0,0,0,0-0.1l0,0c0-0.1,0-0.2,0-0.2l0,0
				c0-0.3,0.8-6.1,0.8-6.5c0.1-0.2,0.1-0.5,0.2-0.7c0.3-0.7,1-1.4,1.7-1.7l0,0c0.3-0.1,5.4-2.4,5.5-2.4
				C92.3,90.6,92.7,90.6,93.2,90.7L93.2,90.7z M93,91.9c-0.2,0-0.5,0-0.7,0.1c-0.1,0-0.1,0-0.2,0.1c-0.1,0-5,2.2-5.1,2.3
				c-0.4,0.2-0.7,0.4-0.9,0.8c-0.1,0.2-0.2,0.5-0.3,0.7c0,0.1-0.8,5.9-0.8,5.9c0,0.1,0,0.1,0,0.1c0,0.2,0,0.3,0.1,0.5
				s0.1,0.4,0.2,0.6s0.2,0.3,0.4,0.4l0.1,0.1c0.1,0,4.5,3.5,4.5,3.5c0.1,0,0.1,0.1,0.2,0.1c0.3,0.2,0.7,0.2,1.1,0.1
				c0.1,0,0.1,0,0.2-0.1l5.8-2.3h0.1c0.1-0.1,0.2-0.1,0.3-0.2c0.2-0.1,0.3-0.3,0.4-0.4s0.1-0.3,0.2-0.4v-0.1c0,0,0.9-6.4,0.9-6.5
				c0.1-0.5-0.1-1-0.5-1.3c-0.1-0.1-4.8-3.8-4.9-3.9c-0.1,0-0.1-0.1-0.2-0.1C93.4,92,93.2,91.9,93,91.9z"/>
			<path class="st17" d="M96.4,95.3l-2-0.3l-0.5,3.5L90.6,98l0.5-3.4l-2-0.3l-1.3,9.6l2,0.3l0.6-4.2l3.3,0.4l-0.6,4.2l2,0.3
				L96.4,95.3z"/>
			<path class="st18" d="M90.4,112.4c-0.3,0-0.5-0.1-0.8-0.3l-7.7-5.7c-1-0.7-1.4-1.9-1.3-3L82,92.9c0.1-0.9,0.7-1.7,1.5-2l0.2,0.5
				c-0.7,0.3-1.1,0.9-1.2,1.6l-1.4,10.5c-0.1,1,0.3,1.9,1.1,2.5l7.7,5.7c0.2,0.2,0.6,0.2,0.8,0.1l0.3,0.5
				C90.9,112.4,90.6,112.4,90.4,112.4z M101.3,108.6l-0.4-0.4c0.2-0.2,0.4-0.5,0.4-0.8l1.5-11.2c0.1-0.9-0.2-1.9-1-2.5l-7.4-5.8
				c-0.4-0.4-1.1-0.4-1.6-0.2l-0.2-0.5c0.7-0.3,1.5-0.2,2.1,0.3l7.4,5.8c0.9,0.7,1.4,1.9,1.2,3l-1.5,11.2
				C101.8,107.9,101.6,108.3,101.3,108.6z"/>
			<path class="st19" d="M94.3,111.3C94.4,111.3,94.4,111.3,94.3,111.3l0.1,0.2c0,0,0,0.1-0.1,0.1c0,0-0.1,0.1-0.1,0c0,0,0,0,0,0.1
				l0,0c-0.2,0.1-0.4,0.2-0.6,0.4c-0.2,0.1-0.4,0.2-0.6,0.4c-0.2,0.1-0.3,0.1-0.5,0.1c-0.1,0-0.1-0.1-0.2-0.1
				c-0.1-0.1-0.1-0.1-0.1-0.2s-0.1-0.1-0.1-0.2s0-0.1,0-0.2c0.1-0.2,0.1-0.4,0.2-0.5c0.1-0.2,0.2-0.4,0.3-0.5c0-0.1,0.1-0.1,0.1-0.2
				c0.1-0.1,0.1-0.1,0.1-0.2c-0.1,0-0.1,0-0.2,0s-0.1,0.1-0.2,0.1s-0.1,0.1-0.2,0.1s-0.1,0.1-0.1,0.1H92c-0.1,0-0.1,0-0.1,0
				s-0.1,0-0.1-0.1c0,0,0-0.1-0.1-0.1v-0.1c0,0,0-0.1-0.1-0.1v-0.1v-0.1c0.1-0.1,0.2-0.1,0.3-0.2c0.1-0.1,0.2-0.1,0.4-0.2
				c0.1-0.1,0.2-0.1,0.4-0.1c0.1,0,0.2,0,0.4,0c0,0.1,0.1,0.1,0.1,0.1c0.1,0,0.1,0,0.2,0l0.1,0.1l0.1,0.1c0,0.1,0,0.2-0.1,0.4
				c-0.1,0.1-0.1,0.2-0.2,0.3c0,0.1-0.1,0.1-0.1,0.1l-0.1,0.1l0,0l0,0c0,0.1-0.1,0.1-0.1,0.1c0,0.1-0.1,0.1-0.1,0.1v0.1v0.1H93
				c0,0,0.1,0,0.1-0.1s0.1-0.1,0.1-0.1s0.1,0,0.1-0.1c0.1-0.1,0.1-0.1,0.2-0.1c0.1-0.1,0.1-0.1,0.2-0.1c0.1-0.1,0.1-0.1,0.2-0.1
				s0.1-0.1,0.2-0.1h0.1h0.1C94.3,111.2,94.3,111.2,94.3,111.3L94.3,111.3z M95.2,111.7c-0.1,0.1-0.2,0.1-0.2,0.1h-0.2
				c-0.1,0-0.1-0.1-0.2-0.1c-0.1-0.1-0.1-0.1-0.2-0.2s-0.1-0.3-0.1-0.4s0-0.3,0-0.4s0-0.2,0.1-0.4c0-0.1,0.1-0.2,0.1-0.3l0,0l0,0
				l0,0l0,0c0,0,0,0,0-0.1c0,0,0,0,0-0.1c0,0,0,0,0-0.1c0,0,0,0,0-0.1l0,0c0,0,0,0,0-0.1c0,0,0,0,0-0.1c0,0,0,0,0-0.1l0,0l0.1-0.1
				v-0.1c0,0,0,0,0.1,0c0,0,0,0,0.1,0c0-0.1,0-0.1,0-0.1v-0.1h0.1H95c0,0,0,0.1,0.1,0.1c0,0,0,0,0.1,0c0,0,0,0,0.1,0
				c0,0,0,0,0.1,0.1l0,0l0,0l0,0l0,0l0,0l0,0v0.1v0.1l0,0l0,0c0,0,0,0,0,0.1c0.1,0.1,0.2,0.2,0.3,0.3c0.1,0.1,0.2,0.2,0.3,0.3v0.1
				c0,0,0,0.1,0.1,0.1c0,0,0,0.1,0.1,0.1c0,0,0,0.1,0.1,0.1c0,0,0,0.1,0.1,0.1v0.1c0,0.1,0,0.1,0,0.1v0.1l0,0c0,0,0,0.1-0.1,0.1
				c0,0,0,0.1-0.1,0.1v0.1c0,0,0,0.1-0.1,0.1c0,0-0.1,0-0.1,0.1c0,0,0,0.1-0.1,0.1l-0.1,0.1l-0.1,0.1h-0.1c-0.1,0.1-0.1,0.1-0.2,0.1
				C95.3,111.7,95.2,111.7,95.2,111.7z M94.7,110.5c0,0.1,0,0.1,0,0.2s0,0.1,0,0.2s0,0.1,0,0.2s0,0.1,0,0.2c0.1,0,0.1,0,0.1,0
				c0.1,0,0.1,0,0.2-0.1c0.1,0,0.1-0.1,0.1-0.1c0.1,0,0.1-0.1,0.1-0.1l0,0c0.1,0,0.1-0.1,0.2-0.2s0.1-0.1,0.1-0.2v-0.1v-0.1
				c0,0,0,0,0-0.1s0,0,0-0.1c-0.1-0.1-0.2-0.1-0.2-0.2c-0.1-0.1-0.1-0.2-0.2-0.2l0,0l0,0c0,0.1,0,0.1,0,0.1H95
				c0,0.1-0.1,0.2-0.1,0.2C94.8,110.2,94.8,110.3,94.7,110.5C94.8,110.4,94.7,110.4,94.7,110.5C94.8,110.4,94.8,110.5,94.7,110.5z
				 M98.8,109.6C98.9,109.6,98.9,109.6,98.8,109.6l0.1,0.2c0,0,0,0.1-0.1,0.1c0,0-0.1,0.1-0.1,0c0,0,0,0,0,0.1s0,0,0,0
				c-0.2,0.1-0.4,0.2-0.6,0.4c-0.2,0.1-0.4,0.2-0.6,0.4c-0.2,0.1-0.3,0.1-0.5,0.1c-0.1,0-0.1-0.1-0.2-0.1c-0.1-0.1-0.1-0.1-0.1-0.2
				s-0.1-0.1-0.1-0.2s0-0.1,0-0.2c0.1-0.2,0.1-0.4,0.2-0.5c0.1-0.2,0.2-0.4,0.3-0.5c0-0.1,0.1-0.1,0.1-0.2c0.1-0.1,0.1-0.1,0.1-0.2
				c-0.1,0-0.1,0-0.2,0s-0.1,0.1-0.2,0.1s-0.1,0.1-0.2,0.1s-0.1,0.1-0.1,0.1h-0.1c-0.1,0-0.1,0-0.1,0s-0.1,0-0.1-0.1
				c0,0,0-0.1-0.1-0.1v-0.1c0,0,0-0.1-0.1-0.1v-0.1v-0.1c0.1-0.1,0.2-0.1,0.3-0.2c0.1-0.1,0.2-0.1,0.4-0.2c0.1-0.1,0.2-0.1,0.4-0.1
				c0.1,0,0.2,0,0.4,0c0,0.1,0.1,0.1,0.1,0.1c0.1,0,0.1,0,0.2,0l0.1,0.1l0.1,0.1c0,0.1,0,0.2-0.1,0.4c-0.1,0.1-0.1,0.2-0.2,0.3
				c0,0.1-0.1,0.1-0.1,0.1c0,0.1-0.1,0.1-0.1,0.1l0,0l0,0c0,0.1-0.1,0.1-0.1,0.1c0,0.1-0.1,0.1-0.1,0.1v0.1v0.1h0.1
				c0,0,0.1,0,0.1-0.1l0.1-0.1c0,0,0.1,0,0.1-0.1c0.1-0.1,0.1-0.1,0.2-0.1c0.1-0.1,0.1-0.1,0.2-0.1c0.1-0.1,0.1-0.1,0.2-0.1
				s0.1-0.1,0.2-0.1h0.1h0.1C98.8,109.5,98.8,109.5,98.8,109.6C98.7,109.6,98.7,109.6,98.8,109.6z M100.9,108.8
				C101,108.8,101,108.8,100.9,108.8l0.1,0.2c0,0,0,0.1-0.1,0.1c0,0-0.1,0.1-0.1,0c0,0,0,0,0,0.1s0,0,0,0c-0.2,0.1-0.4,0.2-0.6,0.4
				c-0.2,0.1-0.4,0.2-0.6,0.4c-0.2,0.1-0.3,0.1-0.5,0.1c-0.1,0-0.1-0.1-0.2-0.1c-0.1-0.1-0.1-0.1-0.1-0.2s-0.1-0.1-0.1-0.2
				s0-0.1,0-0.2c0.1-0.2,0.1-0.4,0.2-0.5c0.1-0.2,0.2-0.4,0.3-0.5c0-0.1,0.1-0.1,0.1-0.2c0.1-0.1,0.1-0.1,0.1-0.2
				c-0.1,0-0.1,0-0.2,0s-0.1,0.1-0.2,0.1s-0.1,0.1-0.2,0.1c-0.1,0.1-0.1,0.1-0.1,0.1h-0.1c-0.1,0-0.1,0-0.1,0s-0.1,0-0.1-0.1
				c0,0,0-0.1-0.1-0.1V108c0,0,0-0.1-0.1-0.1v-0.1v-0.1c0.1-0.1,0.2-0.1,0.3-0.2c0.1-0.1,0.2-0.1,0.4-0.2c0.1-0.1,0.2-0.1,0.4-0.1
				c0.1,0,0.2,0,0.4,0c0,0.1,0.1,0.1,0.1,0.1c0.1,0,0.1,0,0.2,0l0.1,0.1l0.1,0.1c0,0.1,0,0.2-0.1,0.4c-0.1,0.1-0.1,0.2-0.2,0.3
				c0,0.1-0.1,0.1-0.1,0.1c0,0.1-0.1,0.1-0.1,0.1l0,0l0,0c0,0.1-0.1,0.1-0.1,0.1c0,0.1-0.1,0.1-0.1,0.1v0.1v0.1h0.1
				c0,0,0.1,0,0.1-0.1l0.1-0.1c0,0,0.1,0,0.1-0.1c0.1-0.1,0.1-0.1,0.2-0.1c0.1-0.1,0.1-0.1,0.2-0.1c0.1-0.1,0.1-0.1,0.2-0.1
				s0.1-0.1,0.2-0.1h0.1h0.1C100.9,108.7,100.9,108.7,100.9,108.8C100.9,108.7,100.9,108.7,100.9,108.8z"/>
			<path class="st19" d="M86.1,91.6c0,0-0.1,0-0.2,0.1c-0.1,0-0.1,0.1-0.2,0.1c-0.1,0.1-0.3,0.1-0.4,0.1s-0.3,0-0.4,0.1
				c0,0-0.1,0-0.1-0.1h-0.1c-0.1,0-0.1-0.1-0.2-0.1c-0.1-0.1-0.1-0.1-0.2-0.2s-0.1-0.1-0.1-0.2s-0.1-0.2-0.1-0.2
				c0-0.1,0-0.2,0.1-0.4c0-0.1,0.1-0.2,0.1-0.3l0.1-0.1v-0.1c0,0,0,0,0-0.1v-0.1c0.1,0,0.1-0.1,0.1-0.1l0.1-0.1l0.1-0.1l0.1-0.1
				c0,0,0-0.1,0.1-0.1c0,0,0-0.1,0.1-0.1l0.1-0.1v-0.1c0,0,0,0,0.1,0c0,0,0,0,0.1-0.1l0,0l0,0l0,0l0,0l0,0l0,0c0,0,0,0,0.1,0
				c0,0,0,0,0.1,0l0,0l0,0c0.1,0,0.1,0,0.2,0.1l0.1,0.1c0,0.1,0,0.1,0,0.2s-0.1,0.1-0.1,0.1c-0.1,0.1-0.2,0.2-0.3,0.2
				c-0.1,0.1-0.2,0.2-0.2,0.3c-0.1,0-0.1,0.1-0.1,0.1c0,0.1-0.1,0.1-0.1,0.1c0,0.1-0.1,0.1-0.1,0.2s0,0.1-0.1,0.2v0.1V91
				c0,0,0,0.1,0.1,0.1l0.1,0.1c0.2,0,0.4-0.1,0.6-0.1c0.2-0.1,0.4-0.1,0.6-0.2c0,0,0.1,0,0.1,0.1h0.1c0,0,0.1,0,0.1,0.1
				c0,0,0,0.1,0.1,0.1c0,0.1-0.1,0.1-0.1,0.1C86.1,91.5,86.1,91.5,86.1,91.6z M88.2,89.4C88.3,89.5,88.3,89.5,88.2,89.4
				c0.1,0.1,0.1,0.1,0.1,0.2c0,0,0,0,0.1,0.1s0,0.1,0.1,0.1c0,0,0,0.1,0.1,0.1V90v0.1c0,0,0,0.1-0.1,0.1c0,0.1-0.1,0.1-0.1,0.2
				s-0.1,0.1-0.1,0.1l-0.1,0.1c0,0-0.1,0-0.1,0.1L88,90.8l-0.1,0.1L87.8,91c0,0-0.1,0-0.1,0.1c-0.1,0.1-0.1,0.1-0.2,0.1
				s-0.2,0.1-0.2,0.1c-0.1,0.1-0.2,0.1-0.2,0.1c-0.1,0-0.2,0-0.2,0c-0.1,0-0.1-0.1-0.2-0.1c-0.1-0.1-0.1-0.1-0.2-0.2
				s-0.1-0.3-0.1-0.4s0-0.2,0-0.4c0-0.1,0.1-0.2,0.1-0.4c0-0.1,0.1-0.2,0.1-0.3l0,0l0,0l0,0l0,0c0-0.1,0-0.1,0-0.1s0-0.1,0.1-0.1
				c0,0,0,0,0.1-0.1c0,0,0,0,0-0.1c0,0,0,0,0-0.1c0,0,0,0,0-0.1l0,0l0.1-0.1v-0.1c0,0,0,0,0.1,0s0,0,0.1,0v-0.1c0,0,0-0.1,0.1-0.1
				h0.1h0.1c0,0,0,0,0.1,0.1c0,0,0,0,0.1,0c0,0,0,0,0.1,0c0,0,0,0,0.1,0l0,0l0,0c0,0,0,0.1,0.1,0.1c0,0,0,0,0.1,0.1V89v0.1l0,0l0,0
				c0,0,0,0,0,0.1c0.1,0.1,0.2,0.2,0.3,0.2C88,89.3,88.1,89.3,88.2,89.4z M87.9,90C87.9,89.9,87.9,89.9,87.9,90c0-0.1,0-0.1,0-0.2
				l0,0c0,0,0,0,0-0.1c-0.1-0.1-0.2-0.1-0.2-0.2c-0.1-0.1-0.2-0.1-0.2-0.2l0,0l0,0c0,0,0,0,0,0.1l0,0c0,0,0,0-0.1,0c0,0,0,0-0.1,0
				c-0.1,0.1-0.1,0.2-0.2,0.2C87,89.7,87,89.8,87,89.9l0,0l0,0c0,0.1,0,0.1,0,0.2s0,0.1,0,0.1c0,0.1,0,0.1,0,0.2s0,0.1,0,0.2
				c0.1,0,0.1,0,0.2,0s0.1,0,0.2-0.1c0.1,0,0.1-0.1,0.2-0.1s0.1-0.1,0.2-0.1C87.9,90.2,88,90.2,87.9,90C87.8,90.1,87.8,90,87.9,90z
				 M89.4,89.5L89.4,89.5C89.4,89.6,89.4,89.6,89.4,89.5v0.2l0,0c0,0,0,0,0,0.1c0,0,0,0,0,0.1c0,0,0,0,0,0.1c0,0,0,0,0,0.1v0.1v0.1
				v0.1c0,0,0,0-0.1,0.1l0,0l0,0h-0.1l0,0c-0.1,0-0.1,0-0.2,0s-0.1-0.1-0.1-0.1l-0.1-0.1l-0.1-0.1v-0.1c0,0,0-0.1-0.1-0.1
				c0-0.3,0.1-0.6,0.1-1s0.1-0.7,0.1-1c0.1,0,0.1,0,0.2,0s0.1,0,0.2,0s0.1,0.1,0.2,0.1s0.1,0.1,0.1,0.1l0,0l0,0l0,0l0,0l0,0l0,0l0,0
				l0,0v0.1c0,0,0,0,0,0.1s0,0,0,0.1c0,0,0,0,0,0.1l0,0l0,0l0,0l0,0c0,0.1,0.1,0.1,0.1,0.2s0,0.1,0.1,0.2c0,0.1,0.1,0.1,0.1,0.2
				s0.1,0.1,0.1,0.2c0.1-0.1,0.1-0.2,0.1-0.3c0-0.1,0-0.2,0-0.3c0-0.1,0-0.2-0.1-0.4s-0.1-0.2-0.1-0.4v-0.1v-0.1v-0.1v-0.1h0.1H90
				h0.1h0.1c0.1,0,0.1,0.1,0.1,0.1l0.1,0.1v0.1V88v0.1v0.1c0,0.1,0,0.1,0,0.2s0,0.1,0,0.2s0,0.1,0,0.2s0,0.1,0.1,0.2
				c0,0.1,0,0.1,0,0.2s0,0.1,0,0.2s0,0.1-0.1,0.2c0,0.1,0,0.1,0,0.2l0,0l0,0l0,0l0,0l0,0l0,0l-0.1,0.1c0,0,0,0.1-0.1,0.1l-0.1,0.1
				c0,0-0.1,0-0.2,0s-0.2-0.1-0.4-0.2C89.6,89.7,89.5,89.6,89.4,89.5z M91.5,89.3c0,0.1,0,0.2-0.1,0.2h-0.1c0,0,0,0-0.1,0h-0.1H91
				l0,0l0,0c0,0-0.1,0-0.1-0.1s-0.1-0.1-0.1-0.2s0-0.1,0-0.2c0,0,0,0,0-0.1c0,0,0,0,0-0.1c-0.1,0-0.1,0-0.2-0.1s-0.1-0.1-0.1-0.2
				s0-0.1,0-0.1v-0.1c0,0,0-0.1,0.1-0.1c0,0,0.1,0,0.1-0.1h0.1h0.1c0,0,0,0,0-0.1s0,0,0-0.1v-0.1v-0.1v-0.1c0,0,0,0-0.1,0l0,0h-0.1
				c0,0,0,0-0.1,0l-0.1-0.1h-0.1v-0.1l0,0l0,0v-0.1l0,0v-0.1v-0.1c0.1,0,0.1-0.1,0.1-0.1l0.1-0.1l0.1-0.1l0.1-0.1c0,0,0,0,0.1-0.1
				c0,0,0,0,0.1,0l0,0l0,0l0.1-0.1c0.1,0,0.1-0.1,0.2-0.2s0.2-0.1,0.3-0.2h0.1l0,0l0,0c0.1,0,0.2,0,0.2,0H92h0.1l0,0l0,0
				c0.1,0.1,0.1,0.1,0.1,0.2c0,0,0,0.1-0.1,0.1l0,0H92l0,0c-0.1,0-0.1,0.1-0.2,0.1s-0.2,0.1-0.2,0.1c-0.1,0.1-0.2,0.1-0.2,0.1
				c-0.1,0.1-0.1,0.1-0.2,0.1l-0.1,0.1V87c0,0,0,0,0,0.1l0,0l0,0c0,0.1,0,0.1,0,0.2v0.1c0,0,0,0,0,0.1c0.1,0,0.1,0,0.1,0
				s0.1,0,0.1-0.1c0.1,0,0.1-0.1,0.2-0.1s0.1-0.1,0.2-0.1l0.1-0.1l0,0v0.1l0,0l0,0l0,0l0,0c0,0,0,0,0,0.1l-0.1,0.3h-0.1
				c0,0-0.1,0-0.1,0.1c0,0,0,0-0.1,0c0,0,0,0-0.1,0s-0.1,0.1-0.1,0.1s-0.1,0-0.1,0.1L91,88l-0.1,0.1c0,0,0,0-0.1,0c0,0,0,0-0.1,0
				c0,0,0,0-0.1,0l0,0l0,0v0.1v0.1v0.1l0,0l0,0l0,0C91.5,89.2,91.5,89.2,91.5,89.3z"/>
		</g>
	</g>
</g>
</svg>
